<mxfile host="app.diagrams.net" modified="2023-11-22T03:13:11.913Z" agent="Mozilla/5.0 (Windows NT 10.0; Win64; x64) AppleWebKit/537.36 (KHTML, like Gecko) Chrome/119.0.0.0 Safari/537.36" version="22.1.3" etag="vR4bbcBeF9Fr76SuPT42" type="github">
  <diagram name="第 1 页" id="8s2djzDtTh_Am1zmt7nd">
    <mxGraphModel>
      <root>
        <mxCell id="0" />
        <mxCell id="1" parent="0" />
      </root>
    </mxGraphModel>
  </diagram>
</mxfile>
